# xmcd
#
# Track frame offsets: 
#        150
#        26969
#        49350
#        68175
#        90178
#        114901
#        146625
#        163691
#        181631
#        210715
#        232098
#        251943
#        270314
#        279604
#        295733
#        309953
#
# Disc length: 4530 seconds
#
# Revision: 5
# Processed by: cddbd v1.5.2PL0 Copyright (c) Steve Scherf et al.
# Submitted via: ExactAudioCopy v0.99pb5
#
DISCID=e711b010
DTITLE=Elizabeth Farr - Claude-Bénigne Balbastre: Pièces pour clavecin
DTITLE=CD2
DYEAR=2008
DGENRE=Harpsichord
TTITLE0=Pièces de clavecin, Livre I (1759) - La Lamarck
TTITLE1=Pièces de clavecin, Livre I (1759) - La Berville
TTITLE2=Pièces de clavecin, Livre I (1759) - La Lugeac
TTITLE3=Pièces de clavecin, Livre I (1759) - La Suzanne
TTITLE4=Pièces de clavecin, Livre I (1759) - La Genty
TTITLE5=Pièces de clavecin, Livre I (1759) - La Malesherbe
TTITLE6=Pièces de clavecin, Livre I (1759) - La Berryer ou la Lamoigno
TTITLE6=n
TTITLE7=Pièces de clavecin, Livre I (1759) - La Laporte
TTITLE8=Pièces de clavecin, Livre I (1759) - La Morisseau
TTITLE9=Livre contenant des pièces de différent genre d'orgue et de cl
TTITLE9=avecin (1749) - Sonate No. 2 en fa majeur
TTITLE10=Livre contenant des pièces de différent genre d'orgue et de c
TTITLE10=lavecin (1749) - Menuet I et II en la majeur&mineur
TTITLE11=Livre contenant des pièces de différent genre d'orgue et de c
TTITLE11=lavecin (1749) - Sonate en fa majeur "Coucou"
TTITLE12=Livre contenant des pièces de différent genre d'orgue et de c
TTITLE12=lavecin (1749) - Badine en la majeur
TTITLE13=Livre contenant des pièces de différent genre d'orgue et de c
TTITLE13=lavecin (1749) - Sonate No. 6 en fa majeur
TTITLE14=Prélude (1777)
TTITLE15=Marche des Marseillois et l'air ça ira
EXTD=
EXTT0=
EXTT1=
EXTT2=
EXTT3=
EXTT4=
EXTT5=
EXTT6=
EXTT7=
EXTT8=
EXTT9=
EXTT10=
EXTT11=
EXTT12=
EXTT13=
EXTT14=
EXTT15=
PLAYORDER=
